# xmcd
#
# Track frame offsets:
#	150
#	22137
#	47487
#
# Disc length: 961 seconds
#
# Revision: 1
# Processed by: cddbd v1.5.1PL0 Copyright (c) Steve Scherf et al.
# Submitted via: CDex 1.50Beta5
#
DISCID=1e03bf03
DTITLE=See-Saw - スレンダーカメレオン
DYEAR=1900
DGENRE=Pop
TTITLE0=スレンダーカメレオン
TTITLE1=スレンダーカメレオン -Kowai Yume-
TTITLE2=スレンダーカメレオン -Magic-
EXTD=
EXTT0=
EXTT1=
EXTT2=
PLAYORDER=
